<svg width="26" height="26" viewBox="0 0 26 26" fill="none" xmlns="http://www.w3.org/2000/svg">
<path d="M20.042 15.1667C17.3496 15.1667 15.167 17.3493 15.167 20.0417C15.167 22.7341 17.3496 24.9167 20.042 24.9167C22.7344 24.9167 24.917 22.7341 24.917 20.0417C24.917 17.3493 22.7344 15.1667 20.042 15.1667ZM20.042 17.256C20.4264 17.256 20.7384 17.5673 20.7384 17.9524V19.3453H22.1313C22.5157 19.3453 22.8277 19.6566 22.8277 20.0417C22.8277 20.4268 22.5157 20.7381 22.1313 20.7381H20.7384V22.131C20.7384 22.5161 20.4264 22.8274 20.042 22.8274C19.6576 22.8274 19.3456 22.5161 19.3456 22.131V20.7381H17.9527C17.5683 20.7381 17.2563 20.4268 17.2563 20.0417C17.2563 19.6566 17.5683 19.3453 17.9527 19.3453H19.3456V17.9524C19.3456 17.5673 19.6576 17.256 20.042 17.256Z" fill="black"/>
<path fill-rule="evenodd" clip-rule="evenodd" d="M6.8883 6.73549C6.8883 3.6136 9.42435 1.08331 12.5533 1.08331C15.6823 1.08331 18.2184 3.6136 18.2184 6.73549V7.67752C18.2184 10.7994 15.6823 13.3297 12.5533 13.3297C9.42435 13.3297 6.8883 10.7994 6.8883 7.67752V6.73549ZM2.51966 20.0085C3.91609 18.197 8.76913 16.1558 12.5515 16.1558C13.053 16.1558 13.5734 16.1917 14.1021 16.2582C13.4045 17.351 13.0003 18.6491 13.0003 20.0416C13.0003 21.0014 13.1923 21.9163 13.54 22.75H3.8935C2.47819 22.75 1.65668 21.1286 2.51966 20.0085Z" fill="black"/>
</svg>
