<svg width="48" height="48" viewBox="0 0 48 48" fill="none" xmlns="http://www.w3.org/2000/svg">
<rect opacity="0.16" width="48" height="48" rx="12" fill="#BC54CB"/>
<path d="M13 12C12.448 12 12 12.4675 12 13.0435C12 13.6195 12.448 14.087 13 14.087H14C14.552 14.087 15 13.6195 15 13.0435C15 12.4675 14.552 12 14 12H13ZM17 12V18.2609H31V12H17ZM34 12C33.448 12 33 12.4675 33 13.0435C33 13.6195 33.448 14.087 34 14.087H35C35.552 14.087 36 13.6195 36 13.0435C36 12.4675 35.552 12 35 12H34ZM13 16.1739C12.448 16.1739 12 16.6414 12 17.2174C12 17.7934 12.448 18.2609 13 18.2609H14C14.552 18.2609 15 17.7934 15 17.2174C15 16.6414 14.552 16.1739 14 16.1739H13ZM34 16.1739C33.448 16.1739 33 16.6414 33 17.2174C33 17.7934 33.448 18.2609 34 18.2609H35C35.552 18.2609 36 17.7934 36 17.2174C36 16.6414 35.552 16.1739 35 16.1739H34ZM14 20.3478C12.895 20.3478 12 21.2817 12 22.4348C12 23.5878 12.895 24.5217 14 24.5217H15V33.913C15.0004 34.0486 15.0135 34.1837 15.0391 34.3166C15.0412 34.3276 15.0446 34.3382 15.0469 34.3492C15.1425 34.8159 15.3885 35.2343 15.7439 35.5347C16.0993 35.8351 16.5426 35.9994 17 36H31C31.1299 35.9995 31.2594 35.9859 31.3867 35.9592C31.3973 35.957 31.4074 35.9535 31.418 35.9511C31.8652 35.8513 32.2663 35.5947 32.5541 35.2238C32.842 34.8529 32.9994 34.3903 33 33.913V24.5217H34C35.105 24.5217 36 23.5878 36 22.4348C36 21.2817 35.105 20.3478 34 20.3478H27.377H20H14ZM17 22.4348H20V25.0292C20.825 25.985 22.078 26.6087 23.5 26.6087C25.985 26.6087 28 24.7398 28 22.4348H31V31.8261C30.4696 31.8261 29.9609 32.046 29.5858 32.4373C29.2107 32.8287 29 33.3596 29 33.913H19C19 33.3596 18.7893 32.8287 18.4142 32.4373C18.0391 32.046 17.5304 31.8261 17 31.8261V22.4348ZM24 29.7391C23.7348 29.7391 23.4804 29.8491 23.2929 30.0448C23.1054 30.2404 23 30.5059 23 30.7826C23 31.0594 23.1054 31.3248 23.2929 31.5205C23.4804 31.7162 23.7348 31.8261 24 31.8261C24.2652 31.8261 24.5196 31.7162 24.7071 31.5205C24.8946 31.3248 25 31.0594 25 30.7826C25 30.5059 24.8946 30.2404 24.7071 30.0448C24.5196 29.8491 24.2652 29.7391 24 29.7391Z" fill="#BC54CB"/>
</svg>
