<svg width="48" height="48" viewBox="0 0 48 48" fill="none" xmlns="http://www.w3.org/2000/svg">
<rect opacity="0.16" width="48" height="48" rx="12" fill="#66D066"/>
<path d="M35 31.6032H34.0948V30.8648C34.0948 29.8565 33.2748 29.0379 32.2748 29.0379H32.2048V22.1302H32.9885C33.9785 22.1302 34.7885 21.3216 34.7885 20.3333V19.1553C34.7885 18.5364 34.4685 17.9474 33.9285 17.618L25.4785 12.4268C24.5685 11.8577 23.4285 11.8577 22.5286 12.4268L14.0786 17.618C13.5485 17.9474 13.2185 18.5364 13.2185 19.1553V20.3333C13.2185 21.3216 14.0286 22.1302 15.0286 22.1302H15.7947V29.0379H15.7347C14.7247 29.0379 13.9048 29.8565 13.9048 30.8648V31.6032H13C12.4473 31.6032 12 32.0502 12 32.6015C12 33.1528 12.4473 33.5998 13 33.5998C36.4938 33.6002 -0.195337 33.5999 35 33.5998C35.5527 33.5998 36 33.1528 36 32.6015C36 32.0502 35.5527 31.6032 35 31.6032ZM28.4147 29.0379H25.8948V22.1302H28.4147V29.0379ZM23.9985 15.5715C24.8286 15.5715 25.4985 16.2403 25.4985 17.0689C25.4985 17.8975 24.8286 18.5664 23.9985 18.5664C23.1685 18.5664 22.4985 17.8975 22.4985 17.0689C22.4985 16.2403 23.1685 15.5715 23.9985 15.5715ZM19.5848 22.1302H22.1047V29.0379H19.5848V22.1302Z" fill="#66D066"/>
</svg>
