<svg width="22" height="20" viewBox="0 0 22 20" fill="none" xmlns="http://www.w3.org/2000/svg">
<path d="M20.2429 17.5552H19.4823V16.9285C19.4823 16.0727 18.7932 15.3778 17.953 15.3778H17.8941V9.51487H18.5527C19.3846 9.51487 20.0652 8.82854 20.0652 7.98969V6.98986C20.0652 6.46452 19.7963 5.96458 19.3426 5.685L12.2422 1.2789C11.4776 0.795921 10.5196 0.795921 9.76342 1.2789L2.66307 5.685C2.21769 5.96458 1.94039 6.46452 1.94039 6.98986V7.98969C1.94039 8.82854 2.62106 9.51487 3.46134 9.51487H4.10514V15.3778H4.05472C3.20604 15.3778 2.51705 16.0727 2.51705 16.9285V17.5552H1.75678C1.29233 17.5552 0.916504 17.9346 0.916504 18.4025C0.916504 18.8704 1.29233 19.2498 1.75678 19.2498C21.4981 19.2502 -9.33097 19.2499 20.2429 19.2498C20.7073 19.2498 21.0832 18.8704 21.0832 18.4025C21.0832 17.9346 20.7073 17.5552 20.2429 17.5552ZM14.7094 15.3778H12.592V9.51487H14.7094V15.3778ZM10.9986 3.94799C11.6961 3.94799 12.259 4.51569 12.259 5.21898C12.259 5.92222 11.6961 6.48997 10.9986 6.48997C10.3012 6.48997 9.73819 5.92222 9.73819 5.21898C9.73819 4.51569 10.3012 3.94799 10.9986 3.94799ZM7.28982 9.51487H9.40729V15.3778H7.28982V9.51487Z" fill="#00AF66"/>
</svg>
