<svg width="20" height="20" viewBox="0 0 20 20" fill="none" xmlns="http://www.w3.org/2000/svg">
<g id="Call">
<path id="Vector (Stroke)" fill-rule="evenodd" clip-rule="evenodd" d="M1.6665 3.33335C1.6665 2.41478 2.4146 1.66669 3.33317 1.66669H6.24984C7.16841 1.66669 7.9165 2.41478 7.9165 3.33335C7.9165 4.28563 8.06879 5.19741 8.34944 6.04695L8.35317 6.0585C8.53378 6.63318 8.40156 7.28514 7.93909 7.74761C7.90648 7.78022 7.87122 7.81007 7.83366 7.83685L5.02503 9.83965C6.28983 12.0979 8.19304 13.9507 10.4896 15.1533L12.1139 12.2438C12.1548 12.1705 12.2066 12.1037 12.2675 12.0459C12.5838 11.7454 12.9958 11.575 13.4332 11.575C13.5552 11.575 13.7557 11.5849 13.9705 11.6645C14.8148 11.9414 15.7287 12.0917 16.6665 12.0917C17.5851 12.0917 18.3332 12.8398 18.3332 13.7584V16.6667C18.3332 17.5853 17.5851 18.3334 16.6665 18.3334C14.4661 18.3334 12.3744 17.8592 10.4897 17.0067C7.31779 15.572 4.73528 13.0669 3.20149 9.95142C2.21832 7.95435 1.6665 5.70718 1.6665 3.33335Z" fill="black" fill-opacity="0.72"/>
</g>
</svg>
