<svg width="40" height="40" viewBox="0 0 40 40" fill="none" xmlns="http://www.w3.org/2000/svg">
<rect opacity="0.16" width="40" height="40" rx="12" fill="#487EBE"/>
<path fill-rule="evenodd" clip-rule="evenodd" d="M11 14.75C11 13.875 11.9 13 12.8 13H27.2C28.1 13 29 13.875 29 14.75V16.9375C28.55 16.9375 11 16.9375 11 16.9375V14.75ZM11 18.25C11 18.25 11 18.4459 11 18.6875V25.25C11 26.125 11.9 27 12.8 27H27.2C28.1 27 29 26.125 29 25.25V18.6875C29 18.4459 29 18.25 29 18.25L11 18.25ZM20.9 22.625C20.9 22.1418 21.303 21.75 21.8 21.75H24.5C24.9971 21.75 25.4 22.1418 25.4 22.625C25.4 23.1082 24.9971 23.5 24.5 23.5H21.8C21.303 23.5 20.9 23.1082 20.9 22.625Z" fill="#487EBE"/>
</svg>
