<svg width="18" height="18" viewBox="0 0 18 18" fill="none" xmlns="http://www.w3.org/2000/svg">
<path d="M0 9C0 4.02944 4.02944 0 9 0C13.9706 0 18 4.02944 18 9C18 13.9706 13.9706 18 9 18C4.02944 18 0 13.9706 0 9Z" fill="black" fill-opacity="0.72"/>
<path fill-rule="evenodd" clip-rule="evenodd" d="M6.66326 5.60284L6.13293 5.07251L5.07227 6.13317L5.6026 6.6635L7.97159 9.0325L5.60277 11.4013L5.07244 11.9316L6.1331 12.9923L6.66343 12.462L9.03225 10.0932L11.4011 12.462L11.9314 12.9923L12.9921 11.9316L12.4617 11.4013L10.0929 9.0325L12.4619 6.6635L12.9922 6.13317L11.9316 5.07251L11.4013 5.60284L9.03225 7.97184L6.66326 5.60284Z" fill="#F3F3F3"/>
</svg>
