<svg width="14" height="14" viewBox="0 0 14 14" fill="none" xmlns="http://www.w3.org/2000/svg">
<path d="M1.54537 0.333334C0.875676 0.333334 0.333252 0.875758 0.333252 1.54546V8.21212C0.333252 8.88182 0.875676 9.42424 1.54537 9.42424H2.15143V6.39394C2.15143 5.05697 3.23871 3.9697 4.57568 3.9697H10.6363V1.54546C10.6363 0.875758 10.0939 0.333334 9.42416 0.333334H1.54537ZM4.57568 5.18182C3.90598 5.18182 3.36355 5.72424 3.36355 6.39394V12.4545C3.36355 13.1242 3.90598 13.6667 4.57568 13.6667H12.4545C13.1242 13.6667 13.6666 13.1242 13.6666 12.4545V6.39394C13.6666 5.72424 13.1242 5.18182 12.4545 5.18182H4.57568Z" fill="black" fill-opacity="0.6"/>
</svg>
