<svg width="24" height="24" viewBox="0 0 24 24" fill="none" xmlns="http://www.w3.org/2000/svg">
<path fill-rule="evenodd" clip-rule="evenodd" d="M1.4313 8.27276C2.22757 4.87813 4.87813 2.22757 8.27276 1.4313C10.7244 0.856233 13.2757 0.856233 15.7273 1.4313C19.1219 2.22757 21.7724 4.87813 22.5687 8.27277C23.1438 10.7244 23.1438 13.2757 22.5687 15.7273C21.7724 19.1219 19.1219 21.7724 15.7273 22.5687C13.2757 23.1438 10.7244 23.1438 8.27277 22.5687C4.87813 21.7724 2.22757 19.1219 1.4313 15.7273C0.856233 13.2757 0.856233 10.7244 1.4313 8.27276ZM7.58143 7.58121C7.90254 7.26011 8.42315 7.26011 8.74425 7.58121L12.0002 10.8371L15.2558 7.58153C15.5769 7.26042 16.0975 7.26042 16.4186 7.58153C16.7397 7.90263 16.7397 8.42324 16.4186 8.74435L13.163 12L16.4185 15.2554C16.7396 15.5765 16.7396 16.0971 16.4185 16.4182C16.0974 16.7393 15.5767 16.7393 15.2556 16.4182L12.0002 13.1628L8.74438 16.4186C8.42328 16.7397 7.90267 16.7397 7.58156 16.4186C7.26046 16.0975 7.26046 15.5768 7.58156 15.2557L10.8373 12L7.58143 8.74403C7.26033 8.42293 7.26033 7.90232 7.58143 7.58121Z" fill="#ED725D"/>
</svg>
