<svg width="20" height="20" viewBox="0 0 20 20" fill="none" xmlns="http://www.w3.org/2000/svg">
<path d="M10.1923 1.66666C5.95064 1.66666 2.5 5.15561 2.5 9.44436C2.5 13.7331 5.95064 17.2221 10.1923 17.2221C10.8577 17.2221 11.4994 17.1277 12.1154 16.9664V13.5674C11.6103 15.0212 10.8801 15.9258 10.1923 15.9258C9.37308 15.9258 8.49035 14.6548 8.00381 12.6851H12.1154V11.3888H7.75716C7.67447 10.7802 7.6282 10.1282 7.6282 9.44436C7.6282 8.75471 7.68702 8.11296 7.77093 7.49994H12.6137C12.6976 8.11296 12.7564 8.75471 12.7564 9.44436C12.7564 9.62195 12.7447 9.79095 12.7389 9.96465C13.0818 9.64447 13.5359 9.44436 14.0385 9.44436C14.0385 8.76637 13.9956 8.11839 13.922 7.49994H16.3058C16.4974 8.11404 16.6026 8.76699 16.6026 9.44436C16.6026 9.89482 16.552 10.3326 16.4648 10.7571L17.5866 11.566C17.7764 10.8907 17.8846 10.1807 17.8846 9.44436C17.8846 5.15561 14.434 1.66666 10.1923 1.66666ZM10.1923 2.96295C11.0095 2.96295 11.8811 4.24252 12.3683 6.20366H8.01633C8.50348 4.24252 9.37511 2.96295 10.1923 2.96295ZM7.66827 3.4883C7.24269 4.21908 6.90422 5.14388 6.67543 6.20366H4.64468C5.33484 5.00153 6.39552 4.04193 7.66827 3.4883ZM12.7163 3.4883C13.9891 4.04193 15.0498 5.00153 15.7399 6.20366H13.7092C13.4804 5.14388 13.1419 4.21908 12.7163 3.4883ZM4.07878 7.49994H6.46259C6.38906 8.11839 6.34615 8.76637 6.34615 9.44436C6.34615 10.1223 6.38951 10.7698 6.46259 11.3888H4.07752C3.8865 10.7744 3.78205 10.1217 3.78205 9.44436C3.78205 8.76699 3.88718 8.11404 4.07878 7.49994ZM14.0485 10.7331C13.9573 10.7311 13.8668 10.7488 13.783 10.785C13.6992 10.8212 13.6239 10.8751 13.5623 10.943C13.5007 11.0109 13.4541 11.0913 13.4257 11.1789C13.3973 11.2665 13.3876 11.3592 13.3974 11.4508V17.2221C13.3974 17.5798 13.6846 17.8702 14.0385 17.8702C14.2231 17.8702 14.3863 17.789 14.503 17.6626L14.5067 17.6639L15.7124 16.2233L16.9907 18.8082C17.0283 18.8844 17.0804 18.9523 17.144 19.0081C17.2076 19.0639 17.2815 19.1065 17.3614 19.1334C17.4412 19.1603 17.5256 19.1711 17.6096 19.165C17.6936 19.159 17.7755 19.1363 17.8509 19.0982C17.9262 19.0602 17.9933 19.0075 18.0485 18.9431C18.1037 18.8788 18.1457 18.8041 18.1724 18.7234C18.199 18.6426 18.2096 18.5573 18.2036 18.4724C18.1977 18.3875 18.1752 18.3046 18.1375 18.2285L16.8329 15.5916L18.7022 15.2523L18.7034 15.2409C18.9688 15.1625 19.1667 14.9238 19.1667 14.6295C19.1667 14.4033 19.0443 14.2138 18.8699 14.0978L18.8724 14.0852L14.4879 10.9229C14.3711 10.8047 14.2137 10.7367 14.0485 10.7331ZM4.64969 12.6851H6.67418C6.90238 13.7467 7.24138 14.6693 7.66702 15.4004C6.39586 14.8469 5.34007 13.8867 4.64969 12.6851Z" fill="black" fill-opacity="0.6"/>
</svg>
