<svg width="20" height="20" viewBox="0 0 20 20" fill="none" xmlns="http://www.w3.org/2000/svg">
<g clip-path="url(#clip0_1_6593)">
<path d="M10 20C15.5228 20 20 15.5228 20 10C20 4.47715 15.5228 0 10 0C4.47715 0 0 4.47715 0 10C0 15.5228 4.47715 20 10 20Z" fill="#F0F0F0"/>
<path d="M2.06645 3.91141C1.28094 4.9334 0.688633 6.11133 0.34375 7.39098H5.54602L2.06645 3.91141Z" fill="#0052B4"/>
<path d="M19.6553 7.39099C19.3104 6.11138 18.7181 4.93345 17.9326 3.91145L14.4531 7.39099H19.6553Z" fill="#0052B4"/>
<path d="M0.34375 12.6086C0.688672 13.8882 1.28098 15.0661 2.06645 16.0881L5.5459 12.6086H0.34375Z" fill="#0052B4"/>
<path d="M16.0879 2.06697C15.0659 1.28146 13.888 0.68916 12.6084 0.344238V5.54646L16.0879 2.06697Z" fill="#0052B4"/>
<path d="M3.91113 17.9328C4.93313 18.7183 6.11105 19.3106 7.39066 19.6555V14.4533L3.91113 17.9328Z" fill="#0052B4"/>
<path d="M7.39062 0.344238C6.11102 0.68916 4.93309 1.28146 3.91113 2.06693L7.39062 5.54643V0.344238Z" fill="#0052B4"/>
<path d="M12.6084 19.6555C13.888 19.3106 15.0659 18.7183 16.0879 17.9328L12.6084 14.4533V19.6555Z" fill="#0052B4"/>
<path d="M14.4531 12.6086L17.9326 16.0881C18.7181 15.0662 19.3104 13.8882 19.6553 12.6086H14.4531Z" fill="#0052B4"/>
<path d="M19.9154 8.69566H11.3044H11.3044V0.0846484C10.8774 0.0290625 10.4421 0 10 0C9.55785 0 9.12262 0.0290625 8.69566 0.0846484V8.69559V8.69563H0.0846484C0.0290625 9.12262 0 9.55793 0 10C0 10.4421 0.0290625 10.8774 0.0846484 11.3043H8.69559H8.69563V19.9154C9.12262 19.9709 9.55785 20 10 20C10.4421 20 10.8774 19.971 11.3043 19.9154V11.3044V11.3044H19.9154C19.9709 10.8774 20 10.4421 20 10C20 9.55793 19.9709 9.12262 19.9154 8.69566Z" fill="#D80027"/>
<path d="M12.6084 12.6086L17.0707 17.071C17.276 16.8658 17.4718 16.6513 17.6586 16.429L13.8382 12.6086H12.6084V12.6086Z" fill="#D80027"/>
<path d="M7.39109 12.6086H7.39101L2.92871 17.0709C3.13387 17.2762 3.34836 17.472 3.5707 17.6588L7.39109 13.8383V12.6086Z" fill="#D80027"/>
<path d="M7.39195 7.3911V7.39102L2.92961 2.92863C2.72438 3.13379 2.52859 3.34828 2.3418 3.57063L6.16223 7.39106H7.39195V7.3911Z" fill="#D80027"/>
<path d="M12.6084 7.39161L17.0708 2.92919C16.8656 2.72395 16.6511 2.52817 16.4288 2.34142L12.6084 6.16185V7.39161Z" fill="#D80027"/>
</g>
<defs>
<clipPath id="clip0_1_6593">
<rect width="20" height="20" rx="10" fill="white"/>
</clipPath>
</defs>
</svg>
