<svg width="20" height="20" viewBox="0 0 20 20" fill="none" xmlns="http://www.w3.org/2000/svg">
<g clip-path="url(#clip0_1372_15272)">
<path d="M10 20C15.5228 20 20 15.5228 20 10C20 4.47715 15.5228 0 10 0C4.47715 0 0 4.47715 0 10C0 15.5228 4.47715 20 10 20Z" fill="#0052B4"/>
<path d="M10 3.91315L10.3238 4.90959H11.3715L10.5238 5.52541L10.8476 6.52186L10 5.906L9.15237 6.52186L9.47615 5.52541L8.62854 4.90959H9.67623L10 3.91315Z" fill="#FFDA44"/>
<path d="M5.69578 5.69593L6.62938 6.17155L7.3702 5.43077L7.20625 6.46554L8.1398 6.9412L7.105 7.10511L6.94109 8.13995L6.46543 7.2064L5.43066 7.37034L6.17148 6.62952L5.69578 5.69593Z" fill="#FFDA44"/>
<path d="M3.91309 10.0002L4.90953 9.67641V8.62872L5.52531 9.47637L6.5218 9.15258L5.9059 10.0002L6.5218 10.8478L5.52531 10.5241L4.90953 11.3717V10.324L3.91309 10.0002Z" fill="#FFDA44"/>
<path d="M5.69578 14.3044L6.17145 13.3708L5.43066 12.6299L6.46547 12.7939L6.94105 11.8604L7.105 12.8952L8.13977 13.0591L7.20633 13.5347L7.3702 14.5695L6.62938 13.8287L5.69578 14.3044Z" fill="#FFDA44"/>
<path d="M10 16.087L9.67619 15.0905H8.62854L9.47619 14.4747L9.15237 13.4784L10 14.0941L10.8476 13.4784L10.5238 14.4747L11.3715 15.0905H10.3238L10 16.087Z" fill="#FFDA44"/>
<path d="M14.3042 14.3044L13.3706 13.8287L12.6298 14.5695L12.7937 13.5347L11.8602 13.0591L12.895 12.8952L13.0589 11.8604L13.5345 12.7939L14.5693 12.6299L13.8285 13.3708L14.3042 14.3044Z" fill="#FFDA44"/>
<path d="M16.0869 10.0002L15.0905 10.324V11.3717L14.4746 10.524L13.4783 10.8478L14.0941 10.0002L13.4783 9.15258L14.4747 9.47637L15.0905 8.62872V9.67645L16.0869 10.0002Z" fill="#FFDA44"/>
<path d="M14.3042 5.69593L13.8285 6.62953L14.5693 7.37035L13.5345 7.20636L13.0589 8.13992L12.895 7.10511L11.8602 6.94117L12.7937 6.46554L12.6298 5.43082L13.3707 6.1716L14.3042 5.69593Z" fill="#FFDA44"/>
</g>
<defs>
<clipPath id="clip0_1372_15272">
<rect width="20" height="20" fill="white"/>
</clipPath>
</defs>
</svg>
