<svg width="20" height="20" viewBox="0 0 20 20" fill="none" xmlns="http://www.w3.org/2000/svg">
<g id="Left icon">
<path id="Union" fill-rule="evenodd" clip-rule="evenodd" d="M4.88381 3.13045L5.59092 2.42334L7.00513 3.83755L6.29802 4.54466L5.22737 5.61531H11.1465H12.1465V7.61531H11.1465H5.22734L6.29802 8.686L7.00513 9.39311L5.59092 10.8073L4.88381 10.1002L2.10603 7.32244L1.39893 6.61533L2.10603 5.90822L4.88381 3.13045ZM8.19386 12.5073H7.19386V14.5073H8.19386H14.1131L13.0424 15.578L12.3353 16.2851L13.7495 17.6993L14.4566 16.9922L17.2344 14.2144L17.9415 13.5073L17.2344 12.8002L14.4566 10.0224L13.7495 9.31533L12.3353 10.7295L13.0424 11.4366L14.113 12.5073H8.19386Z" fill="black"/>
</g>
</svg>
