<svg width="40" height="40" viewBox="0 0 40 40" fill="none" xmlns="http://www.w3.org/2000/svg">
<rect opacity="0.16" width="40" height="40" rx="12" fill="#C18144"/>
<path fill-rule="evenodd" clip-rule="evenodd" d="M14.2195 11.8837L15.1035 11L16.8709 12.7681L15.9869 13.6518L14.7872 14.8511H21.7726H23.0226V17.3511H21.7726H14.7871L15.9869 18.5504L16.8709 19.4341L15.1035 21.2022L14.2195 20.3185L10.8849 16.9851L10.0005 16.1011L10.8849 15.2171L14.2195 11.8837ZM18.2282 23.1215H16.9782V25.6215H18.2282H25.2132L24.0134 26.8208L23.1294 27.7045L24.8968 29.4726L25.7808 28.5889L29.1154 25.2556L29.9998 24.3715L29.1154 23.4875L25.7808 20.1542L24.8968 19.2704L23.1294 21.0385L24.0134 21.9223L25.2131 23.1215H18.2282Z" fill="#C18144"/>
</svg>
