<svg width="24" height="24" viewBox="0 0 24 24" fill="none" xmlns="http://www.w3.org/2000/svg">
<path d="M3.13802 2L2.19531 2.96149L20.862 22L21.8047 21.0385L17.7878 16.9416C20.5183 15.0559 21.8661 12.4193 21.8841 12.3838C21.9597 12.2707 22.0001 12.1369 22 12C21.9999 11.8466 21.949 11.6978 21.8555 11.5777C21.786 11.4636 17.9455 5.20053 12 5.20053C10.3132 5.20053 8.79955 5.71062 7.48958 6.43825L3.13802 2ZM12 7.24037C14.5773 7.24037 16.6667 9.37133 16.6667 12C16.6667 13.0688 16.3134 14.0486 15.7292 14.842L13.8008 12.8752C13.9264 12.6105 14 12.3147 14 12C14 10.8733 13.1047 9.96016 12 9.96016C11.6914 9.96016 11.4015 10.0352 11.1419 10.1633L9.21354 8.19655C9.99143 7.60071 10.952 7.24037 12 7.24037ZM5.30078 7.97211C3.31944 9.67195 2.18332 11.5152 2.14583 11.5764C2.05159 11.6967 2.00018 11.846 2 12C2.00012 12.1316 2.03766 12.2603 2.10807 12.3705C2.10894 12.3718 2.1098 12.3732 2.11068 12.3745C2.12214 12.3986 5.34589 18.7995 12 18.7995C13.2333 18.7995 14.347 18.5775 15.3464 18.2191L13.6211 16.4582C13.1151 16.6499 12.5707 16.7596 12 16.7596C9.42267 16.7596 7.33333 14.6287 7.33333 12C7.33333 11.418 7.44091 10.8627 7.62891 10.3466L5.30078 7.97211Z" fill="black"/>
</svg>
