<svg width="48" height="48" viewBox="0 0 48 48" fill="none" xmlns="http://www.w3.org/2000/svg">
<rect opacity="0.16" width="48" height="48" rx="12" fill="#BD95E6"/>
<path d="M28 12L29 19L31.2461 17.127C32.9475 18.9185 34 21.3281 34 24C34 29.5345 29.5346 34 24.0001 34C18.4655 34 14.0001 29.5345 14.0001 24C14.002 23.8675 13.9775 23.7359 13.9281 23.613C13.8787 23.49 13.8053 23.3781 13.7123 23.2837C13.6192 23.1893 13.5083 23.1144 13.3861 23.0632C13.2638 23.0121 13.1326 22.9858 13.0001 22.9858C12.8676 22.9858 12.7364 23.0121 12.6141 23.0632C12.4919 23.1144 12.381 23.1893 12.2879 23.2837C12.1949 23.3781 12.1215 23.49 12.0721 23.613C12.0227 23.7359 11.9982 23.8675 12.0001 24C12.0001 30.6155 17.3846 36 24.0001 36C30.6155 36 36 30.6155 36 24C36 20.8523 34.7716 17.9903 32.7832 15.8477L35 14L28 12ZM22.7266 12.0684L22.629 12.082L21.8946 12.5977L21.8692 13.4941L22.5723 14.0508L22.9239 14.0605L23.0235 14.0469L23.7559 13.5312L23.7813 12.6348L23.0801 12.0781L22.7266 12.0684ZM18.8028 13.2305L18.4708 13.3496L18.3848 13.3984L17.8868 14.1445L18.1876 14.9883L19.043 15.2539L19.3751 15.1367L19.463 15.0859L19.9591 14.3398L19.6583 13.4961L18.8028 13.2305ZM16.1485 15.8086L15.254 15.8613L14.9845 16.0898L14.922 16.166L14.7188 17.0391L15.297 17.7246L16.1915 17.6699L16.461 17.4434L16.5235 17.3672L16.7266 16.4941L16.1485 15.8086ZM13.7149 19.2324L12.8966 19.5996L12.7267 19.9082L12.6935 20.002L12.8145 20.8906L13.5977 21.3242L14.4161 20.957L14.586 20.6484L14.6192 20.5547L14.4981 19.666L13.7149 19.2324Z" fill="#BD95E6"/>
<path d="M20.0289 23.4489C20.0953 22.8652 20.2758 22.3468 20.5705 21.8936C20.8653 21.4335 21.2853 21.0695 21.8305 20.8017C22.3758 20.5339 23.0463 20.4 23.8421 20.4C24.6747 20.4 25.3563 20.5099 25.8868 20.7296C26.4174 20.9425 26.8153 21.2584 27.0805 21.6773C27.3458 22.0961 27.5079 22.6249 27.5668 23.2635H25.8537C25.7947 22.7348 25.6105 22.3399 25.3011 22.079C24.9989 21.8112 24.52 21.6773 23.8642 21.6773C23.2232 21.6773 22.7332 21.8249 22.3942 22.1202C22.0553 22.4155 21.8489 22.8584 21.7753 23.4489H20.0289ZM23.8311 27.6C22.6963 27.6 21.8158 27.3494 21.1895 26.8481C20.5705 26.3399 20.1911 25.6635 20.0511 24.8189H21.8084C21.8968 25.3339 22.1032 25.715 22.4274 25.9622C22.7516 26.2026 23.2121 26.3227 23.8089 26.3227C24.5016 26.3227 25.0063 26.1854 25.3232 25.9107C25.6474 25.6292 25.8316 25.2103 25.8758 24.6541H27.6C27.5484 25.327 27.39 25.8798 27.1247 26.3124C26.8595 26.7382 26.4579 27.0609 25.92 27.2807C25.3895 27.4936 24.6932 27.6 23.8311 27.6ZM19.2 22.9442H24.3837V23.7785H19.2V22.9442ZM19.2 24.3348H24.3837V25.1691H19.2V24.3348Z" fill="#BD95E6"/>
</svg>
