<svg width="22" height="22" viewBox="0 0 22 22" fill="none" xmlns="http://www.w3.org/2000/svg">
<path d="M11.0003 0.166687C10.7644 0.166702 10.5378 0.259109 10.3691 0.42412L0.521403 8.47859C0.510029 8.48714 0.498859 8.49596 0.487902 8.50504L0.4544 8.53325V8.53501C0.363854 8.61937 0.291618 8.72143 0.242176 8.83488C0.192734 8.94832 0.167143 9.07072 0.166992 9.19447C0.166992 9.4339 0.262106 9.66352 0.43141 9.83283C0.600713 10.0021 0.830338 10.0972 1.06977 10.0972H1.97255V20.0278C1.97255 21.0254 2.78053 21.8334 3.7781 21.8334H18.2225C19.2201 21.8334 20.0281 21.0254 20.0281 20.0278V10.0972H20.9309C21.1703 10.0972 21.3999 10.0021 21.5692 9.83283C21.7385 9.66352 21.8337 9.4339 21.8337 9.19447C21.8338 9.07042 21.8083 8.94769 21.7588 8.83392C21.7094 8.72016 21.637 8.61781 21.5463 8.53325L21.5321 8.52267C21.5123 8.50472 21.4918 8.48766 21.4704 8.47154L18.2225 5.81434V1.97224C18.2225 1.47391 17.8181 1.06946 17.3198 1.06946H16.417C15.9187 1.06946 15.5142 1.47391 15.5142 1.97224V3.59971L11.6122 0.408251C11.4459 0.253648 11.2274 0.167396 11.0003 0.166687ZM8.29199 12.8056H13.7087V20.0278H8.29199V12.8056Z" fill="black"/>
</svg>
