<svg width="64" height="64" viewBox="0 0 64 64" fill="none" xmlns="http://www.w3.org/2000/svg">
<rect width="64" height="64" rx="20" fill="#EBEBEB"/>
<path fill-rule="evenodd" clip-rule="evenodd" d="M16.25 32C16.25 23.3015 23.3015 16.25 32 16.25C40.6985 16.25 47.75 23.3015 47.75 32C47.75 40.6985 40.6985 47.75 32 47.75C23.3015 47.75 16.25 40.6985 16.25 32ZM33.8 24.8C33.8 25.7941 32.9941 26.6 32 26.6C31.0059 26.6 30.2 25.7941 30.2 24.8C30.2 23.8059 31.0059 23 32 23C32.9941 23 33.8 23.8059 33.8 24.8ZM32 29.75C32.7456 29.75 33.35 30.3544 33.35 31.1V40.1C33.35 40.8456 32.7456 41.45 32 41.45C31.2544 41.45 30.65 40.8456 30.65 40.1V31.1C30.65 30.3544 31.2544 29.75 32 29.75Z" fill="black"/>
</svg>
