<svg width="20" height="20" viewBox="0 0 20 20" fill="none" xmlns="http://www.w3.org/2000/svg">
<g clip-path="url(#clip0_1_6611)">
<path d="M19.378 13.4787C19.78 12.3954 20 11.2236 20 10.0004C20 8.7772 19.78 7.60544 19.378 6.52216L10 5.65259L0.621992 6.52216C0.22 7.60544 0 8.7772 0 10.0004C0 11.2236 0.22 12.3954 0.621992 13.4787L10 14.3482L19.378 13.4787Z" fill="#6DA544"/>
<path d="M19.3771 6.52176C17.9642 2.71375 14.2987 0 9.9991 0C5.69945 0 2.03402 2.71375 0.621094 6.52176H19.3771Z" fill="#FFDA44"/>
<path d="M9.9991 20C14.2987 20 17.9642 17.2863 19.3771 13.4783H0.621094C2.03402 17.2863 5.69945 20 9.9991 20Z" fill="#D80027"/>
</g>
<defs>
<clipPath id="clip0_1_6611">
<rect width="20" height="20" rx="10" fill="white"/>
</clipPath>
</defs>
</svg>
