<svg width="24" height="24" viewBox="0 0 24 24" fill="none" xmlns="http://www.w3.org/2000/svg">
<g id="Notifications">
<path id="Vector" d="M12 22C10.7386 22 9.71536 20.8809 9.71536 19.5H14.2846C14.2846 20.8809 13.2614 22 12 22ZM4.30752 16.152C4.99752 15.341 6.28859 14.1211 6.28859 10.125C6.28859 7.08984 8.2343 4.66016 10.8579 4.06406V3.25C10.8579 2.55977 11.3693 2 12 2C12.6307 2 13.1421 2.55977 13.1421 3.25V4.06406C15.7657 4.66016 17.7114 7.08984 17.7114 10.125C17.7114 14.1211 19.0025 15.341 19.6925 16.152C19.9068 16.4039 20.0018 16.7051 20 17C19.996 17.6406 19.5364 18.25 18.8536 18.25H5.14645C4.4636 18.25 4.0036 17.6406 4.00002 17C3.99824 16.7051 4.09324 16.4035 4.30752 16.152Z" fill="black" fill-opacity="0.72"/>
</g>
</svg>
