<svg width="40" height="40" viewBox="0 0 40 40" fill="none" xmlns="http://www.w3.org/2000/svg">
<rect opacity="0.16" width="40" height="40" rx="12" fill="#78BE20"/>
<path d="M18.3333 9C16.9625 9 15.8333 10.1382 15.8333 11.52C15.8333 11.8155 15.8949 12.0955 15.9896 12.36H11.6667C10.7458 12.36 10 13.1118 10 14.04V15.72H30V14.04C30 13.1118 29.2542 12.36 28.3333 12.36H24.0104C24.1051 12.0955 24.1667 11.8155 24.1667 11.52C24.1667 10.1382 23.0375 9 21.6667 9C21.0262 9 20.4445 9.25546 20 9.66117C19.5555 9.25546 18.9738 9 18.3333 9ZM18.3333 10.68C18.8042 10.68 19.1667 11.0454 19.1667 11.52V12.36H18.3333C17.8625 12.36 17.5 11.9946 17.5 11.52C17.5 11.0454 17.8625 10.68 18.3333 10.68ZM21.6667 10.68C22.1375 10.68 22.5 11.0454 22.5 11.52C22.5 11.9946 22.1375 12.36 21.6667 12.36H20.8333V11.52C20.8333 11.0454 21.1958 10.68 21.6667 10.68ZM10.8333 17.4V28.32C10.8333 29.2482 11.5792 30 12.5 30H19.1667V17.4H10.8333ZM20.8333 17.4V30H27.5C28.4208 30 29.1667 29.2482 29.1667 28.32V17.4H20.8333Z" fill="#74AC2D"/>
</svg>
