<svg width="24" height="24" viewBox="0 0 24 24" fill="none" xmlns="http://www.w3.org/2000/svg">
<path fill-rule="evenodd" clip-rule="evenodd" d="M10.5 3C6.35647 3 3 6.35647 3 10.5C3 14.6435 6.35647 18 10.5 18C12.2111 18 13.7879 17.4276 15.0496 16.4638L19.2929 20.7071C19.6834 21.0976 20.3166 21.0976 20.7071 20.7071C21.0976 20.3166 21.0976 19.6834 20.7071 19.2929L16.4638 15.0496C17.4276 13.7879 18 12.2111 18 10.5C18 6.35647 14.6435 3 10.5 3ZM5 10.5C5 7.46103 7.46103 5 10.5 5C13.539 5 16 7.46103 16 10.5C16 13.539 13.539 16 10.5 16C7.46103 16 5 13.539 5 10.5Z" fill="black" fill-opacity="0.6"/>
</svg>
