<svg width="16" height="16" viewBox="0 0 16 16" fill="none" xmlns="http://www.w3.org/2000/svg">
<path fill-rule="evenodd" clip-rule="evenodd" d="M6.99984 1.66669C4.05339 1.66669 1.6665 4.05357 1.6665 7.00002C1.6665 9.94647 4.05339 12.3334 6.99984 12.3334C8.11152 12.3334 9.14354 11.9936 9.99777 11.4122L12.6261 14.0405C13.0166 14.431 13.6498 14.431 14.0403 14.0405C14.4308 13.6499 14.4308 13.0168 14.0403 12.6262L11.412 9.99795C11.9934 9.14373 12.3332 8.1117 12.3332 7.00002C12.3332 4.05357 9.94629 1.66669 6.99984 1.66669ZM3.6665 7.00002C3.6665 5.15814 5.15796 3.66669 6.99984 3.66669C8.84172 3.66669 10.3332 5.15814 10.3332 7.00002C10.3332 8.8419 8.84172 10.3334 6.99984 10.3334C5.15796 10.3334 3.6665 8.8419 3.6665 7.00002Z" fill="black" fill-opacity="0.72"/>
</svg>
