<svg width="25" height="14" viewBox="0 0 25 14" fill="none" xmlns="http://www.w3.org/2000/svg">
<path d="M7.8665 0H11.4665V2.25H7.8665C5.21558 2.25 3.0665 4.26462 3.0665 6.75C3.0665 9.23524 5.21558 11.25 7.8665 11.25H11.4665V13.5H7.8665C3.89004 13.5 0.666504 10.4779 0.666504 6.75C0.666504 3.02206 3.89004 0 7.8665 0Z" fill="black"/>
<path d="M17.4665 11.25H13.8665V13.5H17.4665C21.443 13.5 24.6665 10.4779 24.6665 6.75C24.6665 3.02206 21.443 0 17.4665 0H13.8665V2.25H17.4665C20.1174 2.25 22.2665 4.26462 22.2665 6.75C22.2665 9.23524 20.1174 11.25 17.4665 11.25Z" fill="black"/>
<path d="M17.4665 5.625H7.8665V7.875H17.4665V5.625Z" fill="black"/>
</svg>
