<svg width="20" height="20" viewBox="0 0 20 20" fill="none" xmlns="http://www.w3.org/2000/svg">
<g clip-path="url(#clip0_1_6617)">
<path d="M0 10.0004C0 11.2236 0.220039 12.3953 0.621992 13.4787L10 14.3482L19.378 13.4787C19.78 12.3953 20 11.2236 20 10.0004C20 8.7772 19.78 7.60548 19.378 6.52216L10 5.65259L0.621992 6.52216C0.220039 7.60548 0 8.7772 0 10.0004Z" fill="#FFDA44"/>
<path d="M19.3781 6.52176C17.9652 2.71379 14.2997 0 10.0001 0C5.70043 0 2.035 2.71379 0.62207 6.52176H19.3781Z" fill="#D80027"/>
<path d="M0.62207 13.4783C2.035 17.2862 5.70043 20 10.0001 20C14.2997 20 17.9652 17.2862 19.3781 13.4783H0.62207Z" fill="#D80027"/>
</g>
<defs>
<clipPath id="clip0_1_6617">
<rect width="20" height="20" rx="10" fill="white"/>
</clipPath>
</defs>
</svg>
