<svg width="16" height="20" viewBox="0 0 16 20" fill="none" xmlns="http://www.w3.org/2000/svg">
<path fill-rule="evenodd" clip-rule="evenodd" d="M8.37443 0.749801C11.4387 0.750982 13.9232 3.23624 13.9232 6.3008V7.79852C15.1419 8.42902 15.975 9.70117 15.975 11.1686V15.4576C15.975 17.5526 14.277 19.2496 12.183 19.2496H4.542C2.448 19.2496 0.75 17.5526 0.75 15.4576V11.1686C0.75 9.70097 1.58328 8.42868 2.80225 7.79827V6.27642C2.81566 3.21097 5.31006 0.737572 8.37443 0.749801ZM11.9232 6.3008V7.37659H4.80225V6.28312C4.81194 4.32225 6.40793 2.74122 8.36787 2.7498H8.37225C10.333 2.7498 11.9232 4.34009 11.9232 6.3008ZM9.83329 13.3333C9.83329 12.5967 9.23663 12 8.49996 12C7.76329 12 7.16663 12.5967 7.16663 13.3333C7.16663 13.826 7.43663 14.2511 7.83329 14.4818V15.3333C7.83329 15.7013 8.13196 16 8.49996 16C8.86796 16 9.16663 15.7013 9.16663 15.3333V14.4818C9.56329 14.2504 9.83329 13.8253 9.83329 13.3333Z" fill="black"/>
</svg>
