<svg width="24" height="24" viewBox="0 0 24 24" fill="none" xmlns="http://www.w3.org/2000/svg">
<g id="Support">
<path id="Subtract" fill-rule="evenodd" clip-rule="evenodd" d="M2 6C2 4.89543 2.89543 4 4 4H18C20.2091 4 22 5.79086 22 8V18.8699L22.0174 21.1022C22.0203 21.4702 21.622 21.7018 21.3036 21.5174L18.6833 20H6C3.79086 20 2 18.2091 2 16V6ZM13.9844 9.4C13.9844 9.1792 13.8011 9 13.5753 9H6.00007V11H13.5753C13.8011 11 13.9844 10.8208 13.9844 10.6V9.4ZM9.57528 13C9.8011 13 9.98438 13.1792 9.98438 13.4V14.6C9.98438 14.8208 9.8011 15 9.57528 15H6.00007V13H9.57528Z" fill="black" fill-opacity="0.72"/>
</g>
</svg>
