<svg width="20" height="20" viewBox="0 0 20 20" fill="none" xmlns="http://www.w3.org/2000/svg">
<path d="M10 8.33391e-05C4.48711 8.33391e-05 0 4.48718 0 10C0 15.5129 4.48711 20 10 20C15.5129 20 20 15.5129 20 10C20 6.55029 18.2483 3.5002 15.5827 1.70255L16.5381 0.476969L12.5 0.330486L13.6654 4.16673L14.5508 3.02904C16.6062 4.37271 18.0328 6.59106 18.2878 9.16834C18.075 9.17999 17.8748 9.27269 17.7283 9.42737C17.5818 9.58206 17.5001 9.78698 17.5 10C17.5002 10.2139 17.5825 10.4195 17.7301 10.5743C17.8776 10.7291 18.079 10.8213 18.2926 10.8317C17.9036 14.7771 14.777 17.9036 10.8317 18.2927C10.8213 18.079 10.7291 17.8776 10.5743 17.7301C10.4195 17.5826 10.2139 17.5002 10 17.5C9.78614 17.5002 9.58053 17.5826 9.42571 17.7301C9.2709 17.8776 9.17874 18.079 9.16829 18.2927C5.22296 17.9036 2.09643 14.7771 1.70736 10.8317C1.92096 10.8213 2.12238 10.7291 2.26992 10.5743C2.41746 10.4195 2.49984 10.2139 2.5 10C2.49984 9.78618 2.41746 9.58057 2.26992 9.42576C2.12238 9.27095 1.92096 9.17878 1.70736 9.16834C2.12344 4.94919 5.66898 1.66674 10 1.66674C10.1104 1.6683 10.2201 1.6479 10.3225 1.60673C10.425 1.56555 10.5183 1.50441 10.5969 1.42688C10.6756 1.34934 10.738 1.25695 10.7806 1.15507C10.8233 1.05319 10.8452 0.94385 10.8452 0.833413C10.8452 0.722976 10.8233 0.61364 10.7806 0.51176C10.738 0.409879 10.6756 0.317486 10.5969 0.239949C10.5183 0.162412 10.425 0.101279 10.3225 0.0601006C10.2201 0.0189226 10.1104 -0.00147836 10 8.33391e-05ZM9.98698 4.15534C9.76625 4.15879 9.55591 4.24967 9.40211 4.40804C9.24832 4.56641 9.16364 4.77933 9.16667 5.00006V9.58338L6.16699 11.8327C5.99001 11.9652 5.87292 12.1626 5.84148 12.3815C5.81004 12.6003 5.86683 12.8227 5.99935 12.9997C6.13187 13.1767 6.32927 13.2938 6.54812 13.3252C6.76698 13.3567 6.98936 13.2999 7.16634 13.1673L10.4997 10.6674C10.6033 10.5897 10.6874 10.489 10.7453 10.3731C10.8033 10.2573 10.8334 10.1295 10.8333 10V5.00006C10.8349 4.88857 10.814 4.77791 10.772 4.67463C10.73 4.57134 10.6677 4.47754 10.5887 4.39877C10.5098 4.32 10.4159 4.25787 10.3125 4.21606C10.2092 4.17425 10.0985 4.1536 9.98698 4.15534Z" fill="black" fill-opacity="0.72"/>
</svg>
