<svg width="17" height="17" viewBox="0 0 17 17" fill="none" xmlns="http://www.w3.org/2000/svg">
<path fill-rule="evenodd" clip-rule="evenodd" d="M3.88397 1.63036L4.59108 0.923256L6.00529 2.33747L5.29818 3.04458L4.22753 4.11523H10.1467H11.1467V6.11523H10.1467H4.2275L5.29818 7.18592L6.00529 7.89302L4.59108 9.30724L3.88397 8.60013L1.10619 5.82235L0.399086 5.11525L1.10619 4.40814L3.88397 1.63036ZM7.19402 11.0072H6.19402V13.0072H7.19402H13.1132L12.0425 14.0779L11.3354 14.785L12.7496 16.1992L13.4568 15.4921L16.2345 12.7143L16.9416 12.0072L16.2345 11.3001L13.4568 8.52235L12.7496 7.81524L11.3354 9.22946L12.0425 9.93656L13.1132 11.0072H7.19402Z" fill="black"/>
</svg>
