<svg width="102" height="21" viewBox="0 0 102 21" fill="none" xmlns="http://www.w3.org/2000/svg">
<g id="W1TTY_logo">
<g id="Vector">
<path d="M24.2937 0L21.2102 17.5577L17.6079 0H11.0086L7.40629 17.5577L4.29391 0H0L3.57346 20.2707H11.0086L14.2938 3.5969L17.5792 20.2707H25.0142L28.6164 0H24.2937Z" fill="black"/>
<path d="M30.0618 20.2707H46.1888V16.6433H40.9869V3.9627C40.9869 1.61557 39.7056 1.08918e-05 36.35 1.08918e-05L33.0262 0L32.4149 3.62739H36.35V16.6433H30.6717L30.0618 20.2707Z" fill="black"/>
<path d="M61.6281 0L47.6341 7.96007e-06V3.65786H52.8025V20.2707H57.4392V3.65786L61.001 3.65786L61.6281 0Z" fill="black"/>
<path d="M78.4595 0H65.0502L64.5189 3.65786L68.8696 3.65786V20.2707H73.5064V3.65786H78.4595V0Z" fill="black"/>
<path d="M96.1144 0L92.759 7.04138C92.2404 8.16923 91.7523 9.26659 91.2643 10.3944C90.8373 9.26659 90.3491 8.16923 89.861 7.04138L86.536 0H81.3503L89.007 14.1437V20.2707H93.6436V14.1437L101.27 0H96.1144Z" fill="black"/>
</g>
</g>
</svg>
