<svg width="20" height="20" viewBox="0 0 20 20" fill="none" xmlns="http://www.w3.org/2000/svg">
<g id="Whatsapp">
<path id="Vector" d="M2 18L3.13003 13.8913C2.43272 12.6887 2.06631 11.3253 2.06698 9.92733C2.06899 5.55667 5.64264 2 10.0335 2C12.1643 2.00067 14.1644 2.82667 15.6689 4.32533C17.1727 5.824 18.0007 7.816 18 9.93467C17.998 14.306 14.4243 17.8627 10.0335 17.8627C8.70049 17.862 7.38692 17.5293 6.22339 16.8973L2 18ZM6.41899 15.462C7.54166 16.1253 8.61341 16.5227 10.0308 16.5233C13.6801 16.5233 16.6529 13.5673 16.6549 9.93333C16.6563 6.292 13.6976 3.34 10.0362 3.33867C6.38416 3.33867 3.41338 6.29467 3.41204 9.928C3.41137 11.4113 3.84811 12.522 4.5816 13.684L3.91242 16.116L6.41899 15.462ZM14.0466 11.8193C13.997 11.7367 13.8644 11.6873 13.6647 11.588C13.4658 11.4887 12.4871 11.0093 12.3043 10.9433C12.1221 10.8773 11.9894 10.844 11.8561 11.0427C11.7235 11.2407 11.3417 11.6873 11.2258 11.8193C11.1099 11.9513 10.9934 11.968 10.7944 11.8687C10.5955 11.7693 9.95378 11.5607 9.1935 10.8853C8.60203 10.36 8.20213 9.71133 8.08624 9.51267C7.97036 9.31467 8.07418 9.20733 8.17332 9.10867C8.26308 9.02 8.37227 8.87733 8.47207 8.76133C8.57322 8.64667 8.60604 8.564 8.67303 8.43133C8.73934 8.29933 8.70652 8.18333 8.65628 8.084C8.60604 7.98533 8.20815 7.01 8.0427 6.61333C7.8806 6.22733 7.71649 6.27933 7.59457 6.27333L7.21276 6.26667C7.08013 6.26667 6.86444 6.316 6.68224 6.51467C6.50004 6.71333 5.9856 7.192 5.9856 8.16733C5.9856 9.14267 6.69899 10.0847 6.79812 10.2167C6.89793 10.3487 8.20146 12.35 10.1983 13.208C10.6732 13.412 11.0443 13.534 11.333 13.6253C11.8099 13.776 12.244 13.7547 12.587 13.704C12.9694 13.6473 13.7645 13.2247 13.9307 12.762C14.0968 12.2987 14.0968 11.902 14.0466 11.8193Z" fill="black" fill-opacity="0.72"/>
</g>
</svg>
